<?xml version="1.0" encoding="utf-8"?>
<!-- Generator: Adobe Illustrator 22.0.1, SVG Export Plug-In . SVG Version: 6.00 Build 0)  -->
<svg version="1.1" id="Layer_1" xmlns="http://www.w3.org/2000/svg" xmlns:xlink="http://www.w3.org/1999/xlink" x="0px" y="0px"
	 viewBox="0 0 2000 2000" style="enable-background:new 0 0 2000 2000;" xml:space="preserve">
<style type="text/css">
	.st0{fill:#2352A3;}
	.st1{fill:#FFFFFF;}
</style>
<g id="Layer_1_1_">
	<image style="overflow:visible;enable-background:new    ;" width="2000" height="2000" xlink:href="AAE6C926.png" >
	</image>
</g>
<g id="Layer_2_1_">
	<path class="st0" d="M1855.5,1963.5h-1712c-58.8,0-107-48.2-107-107v-1712c0-58.8,48.2-107,107-107h1712c58.8,0,107,48.2,107,107
		v1712C1962.5,1915.3,1914.3,1963.5,1855.5,1963.5z"/>
</g>
<g id="Layer_3">
	<rect x="1069.5" y="635.6" class="st1" width="298" height="1327.9"/>
	<rect x="814.5" y="912.6" class="st1" width="844" height="284.9"/>
	<polygon class="st0" points="1663.4,849 1912.3,880.9 1858.8,1286.6 1609.9,1254.8 	"/>
	<ellipse class="st1" cx="1437" cy="636.1" rx="367.5" ry="311"/>
	<path class="st0" d="M1870.5,912.6h-503V698.7c0-60.1,49.9-109.4,111-109.4h392c6.6,0,12,5.3,12,11.8v299.7
		C1882.5,907.3,1877.1,912.6,1870.5,912.6z"/>
	<path class="st1" d="M1668,499.4h-276.3V375.6c0-27.1,22.5-49.3,50-49.3H1668V499.4z"/>
	<rect x="1667.5" y="180.1" class="st0" width="239" height="652.6"/>
	<polygon class="st0" points="1419.8,319.1 1435.9,84.1 1749.5,104.9 1733.4,340 	"/>
</g>
</svg>
